<?xml version="1.0" standalone="no"?>
<!DOCTYPE svg PUBLIC "-//W3C//DTD SVG 20010904//EN"
 "http://www.w3.org/TR/2001/REC-SVG-20010904/DTD/svg10.dtd">
<svg version="1.0" xmlns="http://www.w3.org/2000/svg"
 width="799.000000pt" height="764.000000pt" viewBox="0 0 799.000000 764.000000"
 preserveAspectRatio="xMidYMid meet">

<g transform="translate(0.000000,764.000000) scale(0.100000,-0.100000)"
fill="#000000" stroke="none">
<path d="M0 3820 l0 -3820 3995 0 3995 0 0 3820 0 3820 -3995 0 -3995 0 0
-3820z m1668 1104 c194 -5 304 -23 527 -83 39 -10 122 -33 185 -50 109 -29
203 -62 437 -152 56 -21 107 -39 113 -39 10 0 299 -141 365 -177 11 -6 53 -28
94 -48 41 -19 90 -48 110 -64 61 -47 58 -49 101 40 51 105 51 136 4 188 -58
65 -55 130 13 216 36 47 80 69 197 99 52 14 113 34 135 46 30 15 59 20 119 20
68 0 83 -3 112 -25 19 -14 44 -25 56 -25 11 0 46 -13 77 -30 31 -16 63 -30 71
-30 8 0 28 -12 46 -26 66 -56 81 -138 31 -173 -37 -27 -47 -26 -76 3 l-24 24
-16 -24 c-11 -18 -25 -24 -49 -24 -69 0 -91 32 -36 52 36 12 55 41 37 56 -6 6
-46 18 -87 28 -41 9 -85 26 -96 36 -24 21 -74 18 -126 -8 -15 -8 -41 -14 -58
-14 -35 0 -96 -23 -122 -47 -10 -9 -18 -29 -18 -45 0 -21 -6 -31 -25 -38 -29
-11 -31 -27 -7 -60 13 -19 17 -47 18 -117 1 -60 5 -98 14 -108 21 -26 33 -2
21 41 -6 22 -11 50 -11 64 1 23 3 22 40 -20 37 -42 41 -44 57 -28 16 16 19 49
11 108 -3 23 1 25 37 28 60 3 66 -5 72 -97 5 -66 3 -85 -10 -99 -12 -13 -15
-28 -11 -53 l6 -35 -90 -38 c-50 -20 -108 -42 -129 -47 -25 -7 -51 -25 -75
-52 -31 -36 -42 -42 -75 -42 -36 0 -38 -2 -44 -40 -4 -21 -12 -41 -18 -43 -6
-2 -38 -21 -70 -43 -51 -34 -65 -39 -107 -36 -27 1 -61 -1 -76 -6 -36 -10 -39
16 -4 38 30 20 73 84 82 122 8 35 52 83 76 83 11 0 23 -13 32 -34 21 -50 36
-54 36 -9 0 47 -6 56 -50 78 -19 9 -42 24 -52 32 -9 8 -45 21 -79 29 -35 8
-74 21 -86 29 -31 20 -38 19 -51 -10 -18 -39 -15 -59 13 -85 51 -47 27 -76
-120 -145 -137 -64 -173 -77 -181 -63 -11 17 28 43 124 83 95 40 147 77 138
100 -7 20 -29 19 -101 -5 -33 -11 -94 -29 -135 -40 -41 -12 -122 -34 -180 -51
-58 -16 -128 -36 -156 -44 -28 -8 -58 -15 -67 -15 -9 0 -72 -22 -139 -50 -144
-58 -178 -87 -204 -177 -9 -32 -17 -91 -18 -130 -1 -52 -6 -77 -17 -89 -9 -8
-78 -42 -154 -75 -201 -86 -214 -99 -250 -239 -36 -141 -21 -162 77 -111 35
18 74 44 88 57 14 13 55 32 92 44 88 27 188 103 165 126 -4 4 -39 -3 -79 -14
-39 -12 -74 -19 -77 -16 -8 8 39 42 77 55 18 6 54 32 80 57 48 48 139 92 187
92 36 0 84 -48 96 -95 22 -85 22 -85 6 -85 -8 0 -20 7 -27 15 -28 33 -69 6
-123 -81 -19 -30 -34 -43 -58 -48 -18 -3 -40 -13 -48 -20 -9 -8 -62 -35 -118
-60 -100 -44 -191 -95 -226 -124 -24 -21 -21 -45 9 -81 32 -38 54 -39 75 -3 8
15 42 45 75 67 32 22 80 59 106 82 50 46 83 54 93 24 10 -32 -12 -67 -67 -106
-78 -56 -158 -128 -158 -143 0 -19 30 -61 52 -73 15 -8 21 -5 31 18 19 45 137
161 174 174 19 6 37 9 39 6 14 -14 -100 -179 -149 -215 -14 -11 -15 -17 -7
-27 19 -23 92 -62 138 -74 23 -7 42 -16 42 -21 0 -15 -43 -11 -64 5 -25 19
-99 20 -94 3 2 -7 25 -26 51 -43 43 -28 61 -55 37 -55 -17 0 -153 70 -175 90
-11 10 -38 27 -60 38 -22 11 -49 30 -60 42 -11 13 -49 42 -85 65 -194 126
-304 307 -271 442 17 69 52 123 116 182 74 67 160 114 269 145 49 14 92 28 95
32 3 3 -7 17 -24 30 -32 26 -82 31 -145 15 -19 -5 -66 -12 -103 -15 -61 -5
-68 -4 -65 12 4 19 52 37 137 51 116 19 144 31 191 82 26 28 54 49 66 49 29 0
52 20 60 54 l7 29 -94 -6 c-60 -3 -113 -13 -147 -26 -71 -28 -100 -27 -114 4
-9 20 -8 28 6 44 37 41 277 120 364 121 24 0 82 13 130 29 48 16 162 47 253
69 150 36 201 54 279 96 29 16 88 42 113 50 9 3 17 12 17 21 0 23 -161 21
-201 -2 -27 -16 -29 -16 -52 5 -28 27 -206 91 -337 122 -52 13 -101 24 -108
26 -7 2 -20 17 -30 34 -10 18 -28 32 -46 36 -30 7 -176 120 -176 137 0 5 9 6
23 2 12 -4 45 -8 73 -10 42 -1 63 -10 121 -48 52 -35 91 -51 154 -66 110 -26
237 -65 315 -96 73 -29 97 -32 92 -9 -2 9 -29 26 -63 39 -33 13 -103 40 -155
60 -52 20 -113 41 -135 47 -64 15 -88 35 -81 68 4 25 1 30 -27 40 -54 19 -259
60 -300 60 -24 0 -51 8 -70 22 -29 21 -44 23 -163 24 -73 1 -138 5 -145 9 -24
16 -376 49 -504 49 -49 -1 -133 -6 -185 -12 -52 -6 -133 -16 -180 -22 -164
-19 -208 -28 -306 -60 -107 -35 -189 -88 -223 -144 -11 -17 -23 -56 -26 -86
-4 -30 -13 -72 -22 -92 -15 -36 -15 -38 10 -71 14 -18 52 -47 84 -65 33 -17
67 -40 78 -52 23 -25 47 -26 63 0 8 14 23 20 48 20 31 0 43 7 76 45 22 25 44
45 50 45 5 0 22 8 36 18 41 28 191 85 223 85 34 0 36 -1 41 -28 2 -16 -16 -30
-106 -75 -74 -38 -125 -71 -160 -106 -28 -28 -61 -57 -73 -63 -31 -16 -29 -31
10 -69 l33 -32 55 24 c30 13 63 34 74 46 11 12 44 33 73 46 28 12 52 29 52 37
0 26 40 57 73 57 48 0 77 -24 77 -65 0 -31 -3 -35 -39 -45 -41 -11 -138 -78
-180 -124 -14 -14 -32 -26 -42 -26 -31 0 -28 -14 15 -63 l41 -48 50 27 c63 35
138 97 155 128 15 30 50 46 98 46 49 -1 72 -20 72 -59 0 -28 -5 -34 -45 -51
-48 -21 -135 -82 -148 -105 -4 -7 -23 -19 -42 -25 -19 -6 -35 -15 -35 -18 1
-4 19 -27 41 -52 37 -41 42 -43 54 -27 7 10 26 17 48 17 38 0 64 24 125 112
26 38 38 46 82 56 64 15 116 -2 126 -42 8 -34 -9 -54 -55 -61 -87 -14 -105
-24 -125 -72 -13 -30 -31 -52 -53 -66 l-34 -20 23 -24 c13 -14 40 -36 61 -50
21 -13 43 -37 48 -53 6 -16 17 -31 25 -34 8 -3 14 -10 14 -16 0 -22 -49 -8
-120 35 -41 24 -79 45 -85 45 -45 1 -355 212 -355 242 0 18 31 6 77 -30 86
-68 118 -77 95 -27 -7 16 -36 36 -79 57 -56 27 -74 43 -106 90 -28 42 -47 60
-74 69 -20 6 -64 37 -98 69 -44 41 -72 59 -100 64 -56 11 -107 39 -142 79 -19
21 -69 54 -126 82 -106 52 -117 66 -117 157 0 110 129 267 274 333 163 75 344
119 525 130 58 3 107 8 110 11 3 4 123 3 266 -1 143 -5 302 -9 353 -11z m5427
-3 c375 -17 590 -92 684 -240 39 -60 36 -86 -5 -71 -21 8 -29 8 -35 -2 -7 -11
-12 -10 -30 0 -18 12 -23 12 -30 0 -5 -7 -9 -16 -9 -20 0 -5 -9 -8 -19 -8 -20
0 -31 18 -31 50 0 28 -51 59 -132 79 -66 17 -73 21 -78 47 -4 22 -13 30 -40
37 -48 13 -271 26 -531 33 -176 4 -231 2 -294 -11 -43 -9 -82 -18 -87 -21 -24
-15 -175 -30 -212 -22 -40 9 -66 6 -211 -24 -57 -12 -135 -53 -135 -71 0 -23
-223 -226 -265 -241 -22 -8 -92 -31 -155 -51 -63 -20 -128 -41 -145 -47 -16
-5 -57 -18 -90 -29 -33 -10 -96 -23 -140 -29 -135 -17 -181 -43 -111 -61 16
-4 36 -15 45 -23 18 -16 90 -35 135 -36 16 0 34 8 41 17 12 16 19 16 116 -1
150 -26 149 -25 149 -37 0 -8 -17 -9 -54 -5 -67 9 -84 -9 -24 -24 24 -6 63
-18 87 -25 25 -8 55 -15 67 -15 12 0 69 -15 126 -34 97 -32 276 -57 264 -37
-3 4 -26 20 -51 36 -43 27 -55 52 -24 48 8 -1 63 -20 122 -43 103 -40 144 -45
135 -18 -3 7 -31 26 -64 43 -42 21 -59 36 -59 50 0 49 208 17 307 -47 80 -52
59 -96 -55 -113 -44 -7 -49 -11 -64 -46 -28 -72 -100 -101 -158 -63 -33 22
-189 46 -221 34 -24 -9 -25 -13 -18 -57 4 -27 11 -58 15 -71 13 -34 11 -78 -6
-131 -8 -25 -17 -58 -20 -72 -4 -21 -12 -28 -41 -33 -28 -6 -34 -11 -29 -24
21 -53 18 -81 -12 -109 -22 -21 -33 -44 -42 -90 -6 -34 -16 -65 -21 -68 -17
-11 -40 -146 -40 -238 0 -83 3 -99 28 -144 38 -71 86 -142 95 -143 14 0 7 27
-13 53 -20 25 -27 57 -12 57 16 0 53 -33 67 -61 9 -16 20 -29 26 -29 18 0 22
31 5 49 -18 20 -21 57 -6 66 6 3 10 15 10 26 0 25 27 36 51 21 28 -18 34 -14
15 7 -25 28 -18 67 12 63 18 -3 22 1 22 23 0 19 6 29 21 32 16 4 19 11 14 27
-3 11 -10 36 -15 55 -5 19 -15 38 -24 43 -36 20 -76 61 -76 79 0 33 42 33 118
0 101 -45 150 -39 82 9 -16 12 -30 25 -30 30 0 13 54 40 80 40 33 0 23 25 -21
49 -22 13 -49 37 -60 55 -10 17 -40 42 -65 56 -26 14 -56 37 -68 53 -18 24
-18 29 -5 42 32 33 79 29 194 -14 60 -23 118 -50 130 -61 12 -11 26 -20 31
-20 5 0 34 -20 64 -45 59 -48 99 -112 100 -158 l0 -28 -29 20 c-16 12 -35 19
-43 16 -17 -6 -29 3 -57 43 -26 37 -69 66 -53 35 6 -10 20 -27 31 -37 12 -11
21 -31 21 -47 0 -22 -5 -29 -30 -34 -39 -9 -38 -18 5 -38 38 -18 55 -49 55
-101 0 -33 -39 -80 -88 -105 -12 -7 -33 -30 -47 -51 -14 -22 -43 -49 -64 -60
-21 -10 -52 -35 -68 -53 -15 -19 -44 -42 -63 -52 -19 -10 -42 -23 -50 -30 -21
-18 -125 -55 -185 -66 -127 -22 -118 -23 -149 10 l-29 30 -29 -24 c-16 -14
-35 -25 -41 -25 -11 -1 -57 -4 -172 -14 -27 -2 -52 -8 -55 -12 -2 -5 10 -18
27 -29 36 -22 42 -35 16 -35 -30 0 -143 58 -143 73 0 39 82 87 148 87 58 0
117 60 128 130 4 23 17 54 29 68 42 51 49 75 50 167 1 50 6 106 12 125 6 19
14 67 18 105 5 56 11 75 31 96 15 16 28 43 31 67 5 36 2 44 -26 70 -22 20 -31
37 -29 53 4 34 -29 93 -63 113 -38 23 -39 50 -1 43 15 -3 37 -8 49 -12 18 -6
25 -2 33 19 12 32 15 32 82 1 29 -14 59 -25 66 -25 21 0 13 28 -15 60 -22 24
-53 38 -143 66 -107 33 -274 79 -380 104 -49 12 -65 23 -56 38 9 15 232 -30
356 -72 128 -43 267 -86 282 -86 14 0 36 36 26 45 -1 1 -34 12 -73 23 -38 11
-108 32 -155 47 -93 29 -407 109 -490 124 -30 6 -35 11 -32 31 5 45 -46 54
-80 15 -31 -36 -54 -32 -78 15 -11 21 -29 44 -40 50 -41 22 -20 70 29 70 10 0
52 16 94 35 41 19 108 42 149 51 40 9 109 30 153 46 44 17 107 38 140 48 149
44 249 86 317 131 40 27 77 49 82 49 5 0 25 12 44 26 37 29 31 44 -19 44 -28
0 -345 -92 -378 -109 -10 -6 -47 -21 -82 -35 -155 -58 -363 -147 -416 -177
-32 -18 -85 -56 -118 -84 -75 -63 -133 -94 -193 -102 -54 -7 -121 -52 -166
-113 -40 -54 -64 -52 -101 6 -17 27 -42 51 -62 59 -44 19 -42 32 10 45 23 6
58 16 78 21 75 19 86 67 34 149 -26 41 -32 74 -15 85 16 10 48 -31 60 -77 18
-70 31 -73 119 -29 42 21 108 51 146 66 39 15 108 47 155 71 146 75 441 193
650 259 94 29 488 128 550 137 69 10 168 20 395 37 77 7 149 13 160 15 40 7
284 5 470 -3z m-22 -157 c40 -20 97 -74 97 -91 0 -6 -10 -27 -22 -45 -18 -27
-23 -47 -23 -101 1 -73 12 -90 70 -103 42 -9 84 -32 126 -68 20 -17 49 -41 64
-53 27 -23 89 -32 99 -14 4 5 -12 23 -33 40 -22 18 -45 47 -51 65 -7 24 -21
38 -48 50 -20 10 -46 24 -56 32 -19 14 -19 15 9 44 20 21 38 30 60 30 36 0
154 -60 209 -107 51 -43 86 -45 86 -4 0 31 22 57 40 46 5 -3 10 -24 10 -46 0
-42 -27 -79 -56 -79 -9 0 -49 -33 -89 -74 -65 -66 -78 -75 -129 -87 -51 -11
-64 -19 -104 -67 -53 -60 -87 -82 -131 -82 -22 0 -31 6 -37 22 -4 13 -14 29
-23 36 -27 21 -109 62 -126 62 -17 0 -21 -45 -5 -55 22 -13 8 -25 -30 -25 -32
0 -40 -4 -40 -18 0 -24 18 -45 61 -70 50 -30 59 -28 59 13 0 41 10 43 56 14
50 -31 47 -69 -8 -107 -24 -16 -54 -33 -68 -37 -32 -9 -66 -40 -95 -85 -13
-21 -45 -47 -76 -64 -30 -16 -74 -44 -99 -61 -60 -44 -130 -66 -217 -70 -45
-2 -80 -9 -95 -19 -32 -23 -132 -20 -248 5 -52 12 -135 23 -185 25 -124 6
-133 9 -152 49 -20 42 -13 51 24 37 15 -6 63 -16 107 -22 43 -5 107 -17 143
-25 35 -8 81 -15 101 -15 20 0 60 -7 87 -15 61 -19 88 -14 103 20 17 37 93 68
149 59 35 -5 43 -3 43 10 0 8 -18 25 -41 36 -38 20 -42 20 -60 5 -13 -13 -27
-16 -53 -11 -22 4 -43 2 -56 -6 -17 -11 -27 -9 -68 12 -35 19 -46 30 -44 45 7
44 42 51 172 33 21 -3 25 2 31 35 3 21 19 54 36 75 27 34 35 37 86 40 l56 3
32 65 c36 73 72 100 121 90 34 -7 46 13 30 49 -9 20 -6 29 31 68 23 25 55 51
70 56 25 10 28 15 22 40 -5 22 2 43 26 86 31 56 32 57 15 91 -9 19 -16 57 -16
84 0 27 -7 70 -16 96 -8 25 -13 52 -10 60 7 19 40 18 79 -2z m-5503 -13 c25
-8 25 -8 -10 -25 -19 -9 -47 -23 -62 -32 -14 -8 -68 -22 -120 -30 -142 -25
-138 -22 -138 -97 0 -35 -6 -71 -12 -80 -10 -13 -114 -57 -135 -57 -10 0 0 26
22 52 38 45 29 138 -15 138 -29 0 -25 14 13 42 79 61 113 71 259 78 76 3 141
9 144 13 9 8 20 8 54 -2z m-751 -20 c12 -8 9 -21 -17 -79 -18 -38 -32 -77 -32
-88 0 -10 -4 -24 -8 -30 -8 -12 -124 -84 -135 -84 -17 0 -116 -67 -159 -108
-45 -43 -48 -44 -77 -32 -45 18 -57 37 -29 45 12 4 40 28 63 52 25 27 61 52
95 66 93 39 139 66 157 95 9 15 28 39 42 54 48 53 14 50 -158 -16 -62 -24 -98
-33 -104 -27 -7 7 5 17 35 30 25 10 79 38 119 61 41 24 99 48 129 55 30 7 57
13 60 14 3 0 11 -3 19 -8z m6421 -30 c0 -13 -25 -20 -40 -11 -7 4 -10 15 -7
24 5 14 11 15 27 6 11 -6 20 -15 20 -19z m-396 -2 c38 -30 32 -65 -9 -62 -214
10 -285 24 -285 52 0 10 3 21 7 24 3 4 63 7 133 7 114 0 130 -2 154 -21z
m-2849 -8 c6 -10 -21 -41 -36 -41 -13 0 -11 24 3 38 14 14 25 15 33 3z m3385
-11 c0 -5 -4 -10 -10 -10 -5 0 -10 5 -10 10 0 6 5 10 10 10 6 0 10 -4 10 -10z
m-5293 -67 c43 -29 59 -47 61 -66 2 -15 1 -27 -1 -27 -2 0 -39 -9 -80 -19 -53
-13 -87 -17 -111 -11 -19 4 -37 6 -39 3 -3 -2 -58 -8 -123 -13 -113 -9 -120
-8 -148 12 -17 12 -52 23 -85 27 -47 5 -56 9 -56 26 0 22 -5 21 220 14 39 -1
108 1 155 5 141 12 156 19 100 53 -16 9 -30 24 -30 31 0 26 76 7 137 -35z
m274 32 c0 -5 -9 -11 -21 -13 -20 -3 -27 8 -13 22 10 9 34 3 34 -9z m1823 6
c9 -14 -4 -41 -19 -41 -21 0 -28 19 -15 35 14 17 26 19 34 6z m2011 -21 c4 -6
-7 -10 -25 -10 -18 0 -29 4 -25 10 3 6 15 10 25 10 10 0 22 -4 25 -10z m413
-36 c12 -8 22 -19 22 -24 0 -16 -104 -63 -159 -71 -39 -5 -61 -15 -78 -33 -28
-31 -24 -31 -143 -6 -63 13 -135 20 -212 20 -110 0 -118 1 -118 19 0 40 36 51
165 51 66 0 137 -5 157 -10 30 -9 46 -7 90 10 29 11 76 20 104 20 37 0 59 6
75 20 29 24 67 25 97 4z m879 5 c15 -6 51 -16 78 -23 48 -13 68 -37 35 -44
-23 -4 -173 51 -178 66 -5 15 27 16 65 1z m-3191 -112 c14 -30 14 -36 -2 -77
-10 -25 -17 -66 -17 -91 l1 -46 -76 -11 c-42 -7 -82 -12 -89 -12 -37 0 -58 77
-30 112 6 9 29 18 50 21 50 8 65 21 78 71 6 22 13 47 15 54 2 6 15 12 29 12
19 0 29 -8 41 -33z m-3026 -46 c0 -14 -18 -23 -30 -16 -6 4 -8 11 -5 16 8 12
35 12 35 0z m225 -12 c4 -6 -2 -20 -13 -32 -11 -12 -27 -36 -36 -54 -10 -21
-26 -34 -46 -38 -51 -11 -64 -58 -30 -102 27 -35 26 -78 -5 -108 -13 -14 -31
-25 -39 -25 -20 0 -36 31 -36 69 0 20 -13 47 -35 77 -19 25 -35 51 -35 57 0 6
22 32 50 58 80 78 205 132 225 98z m4859 -30 c14 -11 54 -35 89 -53 70 -37 85
-68 48 -105 -28 -28 -112 -28 -206 -1 -78 23 -265 31 -368 17 -50 -7 -60 -12
-68 -35 -18 -46 -5 -54 46 -25 25 14 49 23 52 20 10 -11 -7 -55 -31 -84 -22
-26 -24 -26 -48 -11 -14 10 -60 19 -108 24 -54 4 -96 14 -117 26 -19 11 -60
22 -95 25 -70 6 -108 24 -108 52 0 27 48 41 142 41 79 0 79 0 92 -31 12 -29
13 -30 27 -10 15 21 87 50 204 82 121 33 288 23 434 -26 77 -25 83 -13 12 25
-65 35 -77 49 -67 75 8 21 39 19 70 -6z m-4046 -23 c5 -40 -12 -54 -38 -31
-25 22 -26 41 -2 54 25 15 37 8 40 -23z m4369 -8 c36 -35 44 -68 16 -68 -37 0
-118 36 -121 54 -11 56 53 65 105 14z m-4084 -34 c51 -17 54 -24 28 -69 -19
-32 -56 -42 -160 -44 -31 -1 -57 -9 -83 -28 -48 -33 -120 -39 -126 -10 -2 10
4 27 13 38 21 22 22 21 -75 38 -74 13 -366 8 -420 -7 -66 -18 -175 -34 -215
-30 -32 2 -40 7 -40 22 0 15 11 22 50 31 28 6 64 19 80 27 66 35 149 48 304
48 117 0 159 -4 182 -15 48 -25 129 -36 212 -29 71 6 80 9 90 31 10 23 15 25
62 19 28 -3 72 -13 98 -22z m2737 -69 c0 -31 -37 -50 -58 -30 -20 19 2 55 33
55 20 0 25 -5 25 -25z m-3305 -76 c9 -14 -28 -53 -97 -100 -31 -21 -69 -54
-85 -72 -15 -19 -43 -42 -60 -51 -37 -18 -38 -26 -21 -91 12 -43 11 -46 -17
-76 -17 -17 -58 -45 -93 -62 -34 -17 -82 -52 -107 -78 -37 -39 -51 -47 -93
-53 -50 -6 -100 5 -114 27 -11 18 11 47 36 47 32 0 69 31 100 84 21 36 36 48
79 64 28 11 61 21 72 24 15 3 19 10 17 28 -2 14 -3 37 -3 52 0 14 -6 29 -14
32 -55 21 50 112 188 164 48 18 102 41 120 52 35 22 82 26 92 9z m165 -15 c0
-17 -22 -14 -28 4 -2 7 3 12 12 12 9 0 16 -7 16 -16z m-60 -13 c0 -21 -26 -36
-36 -20 -9 15 3 39 21 39 8 0 15 -9 15 -19z m4368 -44 c51 -47 8 -64 -58 -22
-40 25 -47 35 -33 49 12 11 66 -5 91 -27z m-1841 -21 c32 -18 81 -46 108 -62
28 -16 86 -45 130 -64 61 -27 80 -40 80 -55 0 -28 -47 -23 -88 8 -18 13 -52
31 -77 41 -25 9 -62 28 -82 42 -21 13 -40 24 -44 24 -15 0 -104 64 -104 75 0
11 9 25 16 25 1 0 29 -15 61 -34z m997 28 c22 -9 20 -34 -3 -34 -21 0 -45 23
-34 33 8 9 17 9 37 1z m-4224 -53 c0 -6 -4 -13 -10 -16 -5 -3 -10 1 -10 9 0 9
5 16 10 16 6 0 10 -4 10 -9z m2849 -10 c23 -23 36 -94 28 -157 -2 -24 -23 -83
-46 -130 -41 -86 -41 -86 -74 -80 -17 4 -56 11 -86 16 -30 5 -58 15 -62 22
-22 35 2 88 40 88 32 0 68 38 80 82 13 52 19 61 49 77 18 9 22 20 22 56 0 51
16 59 49 26z m-301 -143 c1 -124 0 -134 -22 -162 -14 -19 -50 -42 -91 -60 -77
-33 -78 -33 -95 50 -15 72 -1 104 47 104 30 0 43 28 43 90 0 43 3 53 20 57 10
3 28 21 40 39 16 29 23 33 38 25 17 -9 19 -24 20 -143z m987 130 c32 -14 32
-28 1 -28 -33 0 -76 17 -76 30 0 14 43 13 75 -2z m-396 -49 c14 -26 39 -45
114 -84 53 -27 102 -56 108 -62 18 -18 5 -27 -19 -14 -29 15 -59 14 -88 -5
-28 -19 -28 -19 -41 20 -5 16 -16 33 -24 36 -78 36 -76 33 -99 135 -9 39 24
22 49 -26z m-109 -55 c0 -13 -4 -24 -9 -24 -13 0 -24 37 -16 50 10 16 25 1 25
-26z m-831 -58 c30 -16 32 -21 29 -59 -3 -38 -1 -42 22 -45 42 -6 43 -17 9
-83 -30 -57 -33 -73 -35 -154 0 -49 -9 -135 -18 -189 -15 -92 -15 -106 0 -185
14 -73 14 -96 3 -154 -11 -58 -10 -75 4 -127 10 -33 17 -82 17 -109 0 -34 10
-71 35 -125 29 -64 34 -84 29 -120 -6 -39 -1 -55 44 -143 27 -54 53 -113 57
-132 4 -18 15 -48 25 -65 10 -17 25 -64 35 -103 9 -40 21 -73 26 -73 20 0 67
-93 89 -174 27 -102 23 -120 -22 -111 -73 16 -99 45 -112 125 -4 19 -25 64
-49 99 -23 35 -49 76 -58 90 -9 14 -31 76 -48 136 -18 61 -41 130 -53 155 -32
71 -94 258 -112 340 -38 171 -47 270 -35 375 12 111 7 157 -22 193 -22 28 -24
64 -8 111 9 25 9 38 -1 56 -8 15 -10 40 -5 73 5 36 2 66 -11 106 -17 53 -17
58 -1 85 17 28 16 29 -8 35 -21 5 -24 10 -15 26 5 10 10 28 10 39 0 11 11 33
25 49 14 17 25 34 25 39 0 5 9 19 20 30 21 24 46 21 109 -11z m1612 -2 c9 -11
9 -21 1 -39 -14 -31 -48 -33 -102 -5 -43 22 -52 40 -21 40 10 0 31 6 45 14 30
15 59 11 77 -10z m-2537 -19 c-1 -12 -45 -35 -134 -70 -152 -59 -276 -145
-211 -145 27 0 27 -17 1 -25 -11 -4 -28 -17 -36 -31 -27 -41 -66 -25 -43 18
10 19 9 24 -10 36 -44 30 -21 62 92 126 119 68 345 128 341 91z m2693 -31 c-3
-3 -12 -4 -19 -1 -8 3 -5 6 6 6 11 1 17 -2 13 -5z m643 -58 c44 -14 45 -30 1
-34 -34 -3 -111 24 -111 39 0 20 37 18 110 -5z m-1582 -65 c2 -12 1 -30 -3
-39 -6 -15 -9 -14 -26 6 -15 19 -16 28 -8 44 13 24 33 19 37 -11z m-98 -5 c0
-27 -17 -43 -30 -30 -10 11 6 54 20 54 5 0 10 -11 10 -24z m180 -42 c0 -31
-23 -28 -28 4 -2 15 2 22 12 22 11 0 16 -9 16 -26z m1845 -14 c-8 -13 -35 0
-35 16 0 12 4 12 20 4 11 -6 18 -15 15 -20z m-2075 -10 c0 -5 -7 -10 -16 -10
-8 0 -12 5 -9 10 3 6 10 10 16 10 5 0 9 -4 9 -10z m-340 -50 c0 -5 -4 -10 -10
-10 -5 0 -10 5 -10 10 0 6 5 10 10 10 6 0 10 -4 10 -10z m180 -25 c28 -28 31
-35 17 -41 -19 -7 -87 41 -87 62 0 25 36 15 70 -21z m-2625 -15 c3 -5 -1 -10
-9 -10 -8 0 -18 5 -21 10 -3 6 1 10 9 10 8 0 18 -4 21 -10z m4690 -1 c7 -10
-21 -49 -36 -49 -11 0 -22 38 -14 50 8 13 42 13 50 -1z m-2245 -40 c0 -40 -45
-85 -93 -94 -77 -15 -88 13 -21 53 25 15 58 37 72 49 36 30 42 29 42 -8z
m-2503 -5 c-3 -3 -12 -4 -19 -1 -8 3 -5 6 6 6 11 1 17 -2 13 -5z m2577 -20 c9
-24 7 -54 -4 -54 -14 0 -32 39 -26 56 7 19 22 18 30 -2z m-2497 0 c-3 -3 -12
-4 -19 -1 -8 3 -5 6 6 6 11 1 17 -2 13 -5z m2723 -23 c0 -23 -61 -58 -111 -64
-61 -7 -99 10 -99 44 0 20 3 21 66 14 59 -6 68 -5 85 14 16 17 24 19 39 11 11
-6 20 -15 20 -19z m-482 -18 c-4 -33 -24 -41 -33 -14 -8 25 1 41 21 41 11 0
14 -8 12 -27z m700 -76 c3 -52 -8 -61 -26 -22 -18 40 -15 77 6 73 13 -2 18
-15 20 -51z m-2530 -70 c4 -20 -50 -47 -93 -47 -33 0 -32 9 7 42 37 31 81 34
86 5z m1876 13 c14 -5 26 -16 26 -24 0 -16 -63 -38 -85 -30 -23 9 -28 37 -9
51 21 16 34 16 68 3z m456 -12 c0 -25 -43 -58 -77 -58 -45 0 -43 19 7 53 28
20 70 23 70 5z m-1784 -82 c7 -19 -14 -58 -29 -53 -17 5 -21 35 -7 52 16 19
29 19 36 1z m1483 -40 c14 -17 5 -59 -17 -79 -22 -19 -121 -47 -167 -47 -32 0
-36 3 -33 22 2 17 16 27 58 41 30 11 71 32 90 47 40 33 53 36 69 16z m219 -73
c45 -3 85 -9 87 -14 10 -15 -7 -58 -25 -64 -20 -6 -166 37 -194 58 -26 19 -11
41 23 32 14 -3 63 -9 109 -12z m396 -149 c14 -31 37 -95 50 -143 13 -48 35
-106 50 -129 26 -42 33 -72 18 -72 -24 0 -60 73 -112 225 -15 44 -34 98 -43
120 -15 38 -13 70 3 60 5 -3 20 -31 34 -61z m-634 -5 c0 -34 -3 -39 -23 -39
-25 0 -47 17 -47 36 0 6 9 23 21 38 27 35 49 19 49 -35z m268 33 c42 -32 17
-101 -26 -73 -14 9 -33 76 -24 85 10 10 26 6 50 -12z m-1641 -57 c-3 -20 -17
-49 -31 -66 -18 -21 -26 -42 -26 -68 0 -20 -10 -57 -22 -81 -21 -40 -27 -45
-58 -45 -50 0 -53 33 -7 84 24 27 39 57 51 107 20 78 38 104 74 104 23 0 24
-3 19 -35z m-199 -86 c-17 -49 -82 -134 -106 -137 -18 -3 -22 1 -22 23 0 39
16 65 74 116 53 49 71 48 54 -2z m1570 9 c-5 -15 -58 -24 -58 -10 0 15 12 22
38 22 14 0 22 -5 20 -12z m532 -14 c14 -35 12 -111 -2 -137 -7 -12 -14 -40
-17 -61 -4 -22 -12 -41 -19 -44 -11 -3 -13 9 -8 64 4 38 8 94 10 124 1 30 3
61 4 68 3 21 22 13 32 -14z m-1760 -79 c14 -8 39 -14 56 -15 43 0 94 -19 94
-35 0 -19 -106 -48 -149 -41 -20 4 -66 9 -103 12 -65 6 -68 7 -68 33 0 48 18
59 95 60 28 0 61 -6 75 -14z m1229 -69 c-2 -77 -39 -115 -59 -61 -17 44 -12
82 12 99 29 20 48 4 47 -38z m-89 -36 c0 -24 -26 -38 -42 -22 -16 16 -2 42 22
42 13 0 20 -7 20 -20z m235 1 c3 -5 1 -13 -5 -16 -15 -9 -43 3 -35 15 8 13 32
13 40 1z m1445 -41 c0 -5 -2 -10 -4 -10 -3 0 -8 5 -11 10 -3 6 -1 10 4 10 6 0
11 -4 11 -10z m-2642 -53 c2 -10 -3 -17 -12 -17 -10 0 -16 9 -16 21 0 24 23
21 28 -4z m1022 -27 c0 -5 -7 -10 -15 -10 -8 0 -15 5 -15 10 0 6 7 10 15 10 8
0 15 -4 15 -10z m10 -92 c0 -4 29 -8 64 -8 68 0 86 -10 65 -36 -10 -12 -23
-14 -52 -10 -26 4 -57 1 -89 -10 -39 -12 -52 -13 -63 -4 -22 18 -19 57 5 65
11 3 25 16 31 27 11 21 12 21 25 3 8 -10 14 -22 14 -27z"/>
</g>
</svg>
